<svg width="20" height="22" viewBox="0 0 20 22" fill="none" xmlns="http://www.w3.org/2000/svg">
<path d="M2 4C2 3.998 1.997 3.981 2.035 3.919C2.078 3.849 2.165 3.745 2.326 3.618C2.656 3.358 3.196 3.079 3.952 2.828C5.454 2.326 7.592 2 10 2C12.408 2 14.546 2.327 16.048 2.827C16.804 3.079 17.344 3.357 17.674 3.617C17.836 3.745 17.922 3.849 17.964 3.919C18.004 3.982 18 4 18 4C18 4.003 18.003 4.02 17.965 4.081C17.922 4.151 17.835 4.255 17.674 4.382C17.344 4.642 16.804 4.921 16.048 5.172C14.546 5.674 12.408 6 10 6C7.592 6 5.454 5.673 3.952 5.173C3.196 4.921 2.656 4.643 2.326 4.383C2.21238 4.30011 2.11422 4.19788 2.036 4.081C1.997 4.021 2 4.003 2 4ZM18 6.527V11L17.997 11.015C17.9891 11.0382 17.9783 11.0604 17.965 11.081C17.922 11.151 17.835 11.255 17.674 11.382C17.344 11.642 16.804 11.921 16.048 12.172C14.546 12.673 12.408 13 10 13C7.592 13 5.454 12.673 3.952 12.173C3.196 11.921 2.656 11.643 2.326 11.383C2.21238 11.3001 2.11422 11.1979 2.036 11.081C2.02233 11.0604 2.01124 11.0383 2.003 11.015L2 11V6.527C2.42592 6.7405 2.86714 6.92201 3.32 7.07C5.075 7.655 7.437 8 10 8C12.563 8 14.925 7.655 16.68 7.07C17.133 6.92236 17.5742 6.74084 18 6.527ZM18 13.527V18L17.997 18.015C17.9891 18.0382 17.9783 18.0604 17.965 18.081C17.922 18.151 17.835 18.255 17.674 18.382C17.344 18.642 16.804 18.921 16.048 19.172C14.546 19.673 12.408 20 10 20C7.592 20 5.454 19.673 3.952 19.173C3.196 18.921 2.656 18.643 2.326 18.383C2.21238 18.3001 2.11422 18.1979 2.036 18.081C2.02233 18.0604 2.01124 18.0383 2.003 18.015L2 18V13.527C2.42576 13.7408 2.86701 13.9224 3.32 14.07C5.075 14.655 7.437 15 10 15C12.563 15 14.925 14.655 16.68 14.07C17.133 13.9224 17.5742 13.7408 18 13.527ZM0 18C0 18.852 0.519 19.504 1.088 19.953C1.669 20.411 2.448 20.779 3.32 21.07C5.075 21.655 7.437 22 10 22C12.563 22 14.925 21.655 16.68 21.07C17.553 20.78 18.331 20.41 18.912 19.953C19.482 19.504 20 18.852 20 18V4C20 3.148 19.481 2.496 18.912 2.047C18.331 1.589 17.552 1.221 16.68 0.93C14.925 0.345 12.563 0 10 0C7.437 0 5.075 0.345 3.32 0.93C2.447 1.22 1.669 1.59 1.088 2.047C0.518 2.496 0 3.148 0 4V18Z" fill="#1D1D1F"/>
</svg>
