<svg width="251" height="118" viewBox="0 0 251 118" fill="none" xmlns="http://www.w3.org/2000/svg">
<path d="M3 118V0C3 0 78.7323 19.1098 127.5 19C174.887 18.8933 247.5 0 247.5 0V118C247.5 118 173.916 98.7025 126.5 98.5C77.7326 98.2917 3 118 3 118Z" fill="#064096"/>
<path d="M42.777 52.682C41.9663 52.0233 41.1556 51.542 40.345 51.238C39.5343 50.9087 38.749 50.744 37.989 50.744C37.0263 50.744 36.241 50.972 35.633 51.428C35.025 51.884 34.721 52.4793 34.721 53.214C34.721 53.7207 34.873 54.1387 35.177 54.468C35.481 54.7973 35.8736 55.0887 36.355 55.342C36.8616 55.57 37.419 55.7727 38.027 55.95C38.6603 56.1273 39.281 56.3173 39.889 56.52C42.321 57.3307 44.0943 58.42 45.209 59.788C46.349 61.1307 46.919 62.8913 46.919 65.07C46.919 66.5393 46.6656 67.8693 46.159 69.06C45.6776 70.2507 44.9556 71.2767 43.993 72.138C43.0556 72.974 41.8903 73.62 40.497 74.076C39.129 74.5573 37.571 74.798 35.823 74.798C32.2003 74.798 28.8436 73.7213 25.753 71.568L28.945 65.564C30.0596 66.552 31.1616 67.2867 32.251 67.768C33.3403 68.2493 34.417 68.49 35.481 68.49C36.697 68.49 37.5963 68.2113 38.179 67.654C38.787 67.0967 39.091 66.4633 39.091 65.754C39.091 65.3233 39.015 64.956 38.863 64.652C38.711 64.3227 38.4576 64.0313 38.103 63.778C37.7483 63.4993 37.2796 63.246 36.697 63.018C36.1396 62.79 35.4556 62.5367 34.645 62.258C33.6823 61.954 32.7323 61.6247 31.795 61.27C30.883 60.89 30.0596 60.396 29.325 59.788C28.6156 59.18 28.033 58.42 27.577 57.508C27.1463 56.5707 26.931 55.3927 26.931 53.974C26.931 52.5553 27.159 51.276 27.615 50.136C28.0963 48.9707 28.755 47.9827 29.591 47.172C30.4523 46.336 31.491 45.69 32.707 45.234C33.9483 44.778 35.329 44.55 36.849 44.55C38.2676 44.55 39.7496 44.7527 41.295 45.158C42.8403 45.538 44.3223 46.108 45.741 46.868L42.777 52.682ZM62.6649 51.656V74H55.2169V51.656H49.0989V45.348H68.7829V51.656H62.6649ZM86.3398 63.36L82.9958 53.822L79.6518 63.36H86.3398ZM88.3158 69.022H77.6758L75.9658 74H68.0238L78.9298 45.348H87.0618L97.9678 74H90.0258L88.3158 69.022ZM101.227 74V45.348H108.675L122.431 62.866V45.348H129.841V74H122.431L108.675 56.482V74H101.227ZM143.298 67.692H145.008C146.3 67.692 147.452 67.4893 148.466 67.084C149.479 66.6787 150.328 66.1213 151.012 65.412C151.721 64.7027 152.253 63.8667 152.608 62.904C152.988 61.916 153.178 60.8393 153.178 59.674C153.178 58.534 152.988 57.47 152.608 56.482C152.228 55.494 151.683 54.6453 150.974 53.936C150.29 53.2267 149.441 52.6693 148.428 52.264C147.414 51.8587 146.274 51.656 145.008 51.656H143.298V67.692ZM135.85 45.348H146.87C148.82 45.348 150.644 45.7407 152.342 46.526C154.064 47.3113 155.559 48.3627 156.826 49.68C158.118 50.972 159.131 52.492 159.866 54.24C160.6 55.9627 160.968 57.774 160.968 59.674C160.968 61.5487 160.6 63.36 159.866 65.108C159.156 66.8307 158.156 68.3507 156.864 69.668C155.597 70.9853 154.102 72.0367 152.38 72.822C150.682 73.6073 148.846 74 146.87 74H135.85V45.348ZM172.221 59.674C172.221 60.814 172.436 61.8653 172.867 62.828C173.297 63.7907 173.88 64.6267 174.615 65.336C175.349 66.0453 176.198 66.6027 177.161 67.008C178.149 67.388 179.187 67.578 180.277 67.578C181.366 67.578 182.392 67.388 183.355 67.008C184.343 66.6027 185.204 66.0453 185.939 65.336C186.699 64.6267 187.294 63.7907 187.725 62.828C188.155 61.8653 188.371 60.814 188.371 59.674C188.371 58.534 188.155 57.4827 187.725 56.52C187.294 55.5573 186.699 54.7213 185.939 54.012C185.204 53.3027 184.343 52.758 183.355 52.378C182.392 51.9727 181.366 51.77 180.277 51.77C179.187 51.77 178.149 51.9727 177.161 52.378C176.198 52.758 175.349 53.3027 174.615 54.012C173.88 54.7213 173.297 55.5573 172.867 56.52C172.436 57.4827 172.221 58.534 172.221 59.674ZM164.431 59.674C164.431 57.546 164.823 55.57 165.609 53.746C166.394 51.8967 167.483 50.288 168.877 48.92C170.27 47.552 171.929 46.488 173.855 45.728C175.805 44.9427 177.946 44.55 180.277 44.55C182.582 44.55 184.71 44.9427 186.661 45.728C188.611 46.488 190.283 47.552 191.677 48.92C193.095 50.288 194.197 51.8967 194.983 53.746C195.768 55.57 196.161 57.546 196.161 59.674C196.161 61.802 195.768 63.7907 194.983 65.64C194.197 67.464 193.095 69.06 191.677 70.428C190.283 71.796 188.611 72.8727 186.661 73.658C184.71 74.418 182.582 74.798 180.277 74.798C177.946 74.798 175.805 74.418 173.855 73.658C171.929 72.8727 170.27 71.796 168.877 70.428C167.483 69.06 166.394 67.464 165.609 65.64C164.823 63.7907 164.431 61.802 164.431 59.674ZM207.626 58.724L198.696 45.348H207.892L211.768 52.758L216.556 45.348H225.752L216.29 58.724L226.968 74H217.886L212.148 64.652L205.422 74H196.416L207.626 58.724Z" fill="#FEFEFE"/>
</svg>
