<svg width="251" height="124" viewBox="0 0 251 124" fill="none" xmlns="http://www.w3.org/2000/svg">
<path d="M3 121V3C3 3 78.7323 22.1098 127.5 22C174.887 21.8933 247.5 3 247.5 3V121C247.5 121 173.916 101.702 126.5 101.5C77.7326 101.292 3 121 3 121Z" stroke="#868686" stroke-width="4"/>
<path d="M42.777 55.682C41.9663 55.0233 41.1556 54.542 40.345 54.238C39.5343 53.9087 38.749 53.744 37.989 53.744C37.0263 53.744 36.241 53.972 35.633 54.428C35.025 54.884 34.721 55.4793 34.721 56.214C34.721 56.7207 34.873 57.1387 35.177 57.468C35.481 57.7973 35.8736 58.0887 36.355 58.342C36.8616 58.57 37.419 58.7727 38.027 58.95C38.6603 59.1273 39.281 59.3173 39.889 59.52C42.321 60.3307 44.0943 61.42 45.209 62.788C46.349 64.1307 46.919 65.8913 46.919 68.07C46.919 69.5393 46.6656 70.8693 46.159 72.06C45.6776 73.2507 44.9556 74.2767 43.993 75.138C43.0556 75.974 41.8903 76.62 40.497 77.076C39.129 77.5573 37.571 77.798 35.823 77.798C32.2003 77.798 28.8436 76.7213 25.753 74.568L28.945 68.564C30.0596 69.552 31.1616 70.2867 32.251 70.768C33.3403 71.2493 34.417 71.49 35.481 71.49C36.697 71.49 37.5963 71.2113 38.179 70.654C38.787 70.0967 39.091 69.4633 39.091 68.754C39.091 68.3233 39.015 67.956 38.863 67.652C38.711 67.3227 38.4576 67.0313 38.103 66.778C37.7483 66.4993 37.2796 66.246 36.697 66.018C36.1396 65.79 35.4556 65.5367 34.645 65.258C33.6823 64.954 32.7323 64.6247 31.795 64.27C30.883 63.89 30.0596 63.396 29.325 62.788C28.6156 62.18 28.033 61.42 27.577 60.508C27.1463 59.5707 26.931 58.3927 26.931 56.974C26.931 55.5553 27.159 54.276 27.615 53.136C28.0963 51.9707 28.755 50.9827 29.591 50.172C30.4523 49.336 31.491 48.69 32.707 48.234C33.9483 47.778 35.329 47.55 36.849 47.55C38.2676 47.55 39.7496 47.7527 41.295 48.158C42.8403 48.538 44.3223 49.108 45.741 49.868L42.777 55.682ZM62.6649 54.656V77H55.2169V54.656H49.0989V48.348H68.7829V54.656H62.6649ZM86.3398 66.36L82.9958 56.822L79.6518 66.36H86.3398ZM88.3158 72.022H77.6758L75.9658 77H68.0238L78.9298 48.348H87.0618L97.9678 77H90.0258L88.3158 72.022ZM101.227 77V48.348H108.675L122.431 65.866V48.348H129.841V77H122.431L108.675 59.482V77H101.227ZM143.298 70.692H145.008C146.3 70.692 147.452 70.4893 148.466 70.084C149.479 69.6787 150.328 69.1213 151.012 68.412C151.721 67.7027 152.253 66.8667 152.608 65.904C152.988 64.916 153.178 63.8393 153.178 62.674C153.178 61.534 152.988 60.47 152.608 59.482C152.228 58.494 151.683 57.6453 150.974 56.936C150.29 56.2267 149.441 55.6693 148.428 55.264C147.414 54.8587 146.274 54.656 145.008 54.656H143.298V70.692ZM135.85 48.348H146.87C148.82 48.348 150.644 48.7407 152.342 49.526C154.064 50.3113 155.559 51.3627 156.826 52.68C158.118 53.972 159.131 55.492 159.866 57.24C160.6 58.9627 160.968 60.774 160.968 62.674C160.968 64.5487 160.6 66.36 159.866 68.108C159.156 69.8307 158.156 71.3507 156.864 72.668C155.597 73.9853 154.102 75.0367 152.38 75.822C150.682 76.6073 148.846 77 146.87 77H135.85V48.348ZM172.221 62.674C172.221 63.814 172.436 64.8653 172.867 65.828C173.297 66.7907 173.88 67.6267 174.615 68.336C175.349 69.0453 176.198 69.6027 177.161 70.008C178.149 70.388 179.187 70.578 180.277 70.578C181.366 70.578 182.392 70.388 183.355 70.008C184.343 69.6027 185.204 69.0453 185.939 68.336C186.699 67.6267 187.294 66.7907 187.725 65.828C188.155 64.8653 188.371 63.814 188.371 62.674C188.371 61.534 188.155 60.4827 187.725 59.52C187.294 58.5573 186.699 57.7213 185.939 57.012C185.204 56.3027 184.343 55.758 183.355 55.378C182.392 54.9727 181.366 54.77 180.277 54.77C179.187 54.77 178.149 54.9727 177.161 55.378C176.198 55.758 175.349 56.3027 174.615 57.012C173.88 57.7213 173.297 58.5573 172.867 59.52C172.436 60.4827 172.221 61.534 172.221 62.674ZM164.431 62.674C164.431 60.546 164.823 58.57 165.609 56.746C166.394 54.8967 167.483 53.288 168.877 51.92C170.27 50.552 171.929 49.488 173.855 48.728C175.805 47.9427 177.946 47.55 180.277 47.55C182.582 47.55 184.71 47.9427 186.661 48.728C188.611 49.488 190.283 50.552 191.677 51.92C193.095 53.288 194.197 54.8967 194.983 56.746C195.768 58.57 196.161 60.546 196.161 62.674C196.161 64.802 195.768 66.7907 194.983 68.64C194.197 70.464 193.095 72.06 191.677 73.428C190.283 74.796 188.611 75.8727 186.661 76.658C184.71 77.418 182.582 77.798 180.277 77.798C177.946 77.798 175.805 77.418 173.855 76.658C171.929 75.8727 170.27 74.796 168.877 73.428C167.483 72.06 166.394 70.464 165.609 68.64C164.823 66.7907 164.431 64.802 164.431 62.674ZM207.626 61.724L198.696 48.348H207.892L211.768 55.758L216.556 48.348H225.752L216.29 61.724L226.968 77H217.886L212.148 67.652L205.422 77H196.416L207.626 61.724Z" fill="#868686"/>
</svg>
