<svg width="391" height="392" viewBox="0 0 391 392" fill="none" xmlns="http://www.w3.org/2000/svg">
<path d="M178.381 125.616L178.419 125.605L178.457 125.592L234.202 107.396L236.271 106.72L236.271 104.544L236.271 71.791L236.271 67.7703L232.416 68.9152L168.499 87.9017C144.132 95.1399 123.669 107.351 113.301 123.266L113.3 123.267C102.958 139.158 100.387 156.131 105.681 173.952C110.809 191.216 120.752 202.999 135.61 208.778C145.097 212.47 157.663 213.759 173.102 212.875L207.867 210.906L207.873 210.906C221.347 210.116 229.861 210.29 233.856 211.219L233.879 211.224L233.902 211.229C236.947 211.888 239.289 213.071 241.061 214.688C242.829 216.302 244.173 218.478 245.026 221.349C246.882 227.597 245.749 233.08 241.529 238.143C237.173 243.37 230.269 247.541 220.473 250.451L220.42 250.466L220.366 250.482L220.312 250.498L220.259 250.514L220.205 250.53L220.15 250.546L220.096 250.563L220.042 250.579L219.988 250.595L219.933 250.611L219.878 250.627L219.824 250.644L219.769 250.66L219.714 250.676L219.659 250.692L219.604 250.709L219.548 250.725L219.493 250.742L219.438 250.758L219.382 250.775L219.326 250.791L219.27 250.808L219.215 250.824L219.159 250.841L219.103 250.858L219.046 250.874L218.99 250.891L218.934 250.908L218.877 250.925L218.821 250.941L218.764 250.958L218.708 250.975L218.651 250.992L218.594 251.009L218.537 251.026L218.48 251.043L218.423 251.06L218.366 251.077L218.308 251.094L218.251 251.111L218.193 251.128L218.136 251.145L218.078 251.162L218.02 251.179L217.963 251.196L217.905 251.214L217.847 251.231L217.789 251.248L217.731 251.265L217.672 251.283L217.614 251.3L217.556 251.317L217.497 251.335L217.439 251.352L217.38 251.369L217.322 251.387L217.263 251.404L217.204 251.422L217.146 251.439L217.087 251.457L217.028 251.474L216.969 251.492L216.91 251.509L216.851 251.527L216.791 251.544L216.732 251.562L216.673 251.579L216.614 251.597L216.554 251.615L216.495 251.632L216.435 251.65L216.375 251.668L216.316 251.686L216.256 251.703L216.196 251.721L216.137 251.739L216.077 251.757L216.017 251.774L215.957 251.792L215.897 251.81L215.837 251.828L215.777 251.846L215.716 251.864L215.656 251.881L215.596 251.899L215.536 251.917L215.475 251.935L215.415 251.953L215.355 251.971L215.294 251.989L215.234 252.007L215.173 252.025L215.113 252.043L215.052 252.061L214.991 252.079L214.931 252.097L214.87 252.115L214.809 252.133L214.749 252.151L214.688 252.169L214.627 252.187L214.566 252.205L214.505 252.223L214.444 252.241L214.383 252.26L214.322 252.278L214.261 252.296L214.2 252.314L214.139 252.332L214.078 252.35L214.017 252.368L213.956 252.386L213.895 252.405L213.834 252.423L213.773 252.441L213.711 252.459L213.65 252.477L213.589 252.496L213.528 252.514L213.467 252.532L213.405 252.55L213.344 252.568L213.283 252.586L213.221 252.605L213.16 252.623L213.099 252.641L213.038 252.659L212.976 252.678L212.915 252.696L212.854 252.714L212.792 252.732L212.731 252.75L212.67 252.769L212.608 252.787L212.547 252.805L212.486 252.823L212.424 252.842L212.363 252.86L212.301 252.878L212.24 252.896L212.179 252.914L212.117 252.933L212.056 252.951L211.995 252.969L211.934 252.987L211.872 253.005L211.811 253.024L211.75 253.042L211.688 253.06L211.627 253.078L211.566 253.096L211.505 253.115L211.443 253.133L211.382 253.151L211.321 253.169L211.26 253.187L211.199 253.206L211.138 253.224L211.076 253.242L211.015 253.26L210.954 253.278L210.893 253.296L210.832 253.314L210.771 253.333L210.71 253.351L210.649 253.369L210.588 253.387L210.528 253.405L210.467 253.423L210.406 253.441L210.345 253.459L210.284 253.477L210.223 253.495L210.163 253.513L210.102 253.531L210.041 253.549L209.981 253.567L209.92 253.585L209.86 253.603L209.799 253.621L209.739 253.639L209.678 253.657L209.618 253.675L209.558 253.693L209.497 253.711L209.437 253.729L209.377 253.747L209.317 253.765L209.257 253.782L209.197 253.8L209.137 253.818L209.077 253.836L209.017 253.854L208.957 253.872L208.897 253.889L208.837 253.907L208.777 253.925L208.718 253.943L208.658 253.96L208.599 253.978L208.539 253.996L208.48 254.013L208.42 254.031L208.361 254.049L208.302 254.066L208.242 254.084L208.183 254.101L208.124 254.119L208.065 254.136L208.006 254.154L207.947 254.171L207.889 254.189L207.83 254.206L207.771 254.224L207.712 254.241L207.654 254.259L207.595 254.276L207.537 254.293L207.479 254.311L207.42 254.328L207.362 254.345L207.304 254.362L207.246 254.38L207.188 254.397L207.13 254.414L207.072 254.431L207.015 254.448L206.957 254.466L206.899 254.483L206.842 254.5L206.784 254.517L206.727 254.534L206.67 254.551L206.613 254.568L206.556 254.585L206.499 254.602L206.442 254.619L206.385 254.636L206.328 254.652L206.271 254.669L206.215 254.686L206.158 254.703L206.102 254.72L206.046 254.736L205.99 254.753L205.934 254.77L205.878 254.786L205.822 254.803L205.766 254.819L205.71 254.836L205.655 254.852L205.599 254.869L205.544 254.885L205.488 254.902L205.433 254.918L205.378 254.935L205.323 254.951L205.268 254.967L205.213 254.983L205.159 255L205.104 255.016L205.05 255.032L204.995 255.048L204.941 255.064L204.887 255.08L204.833 255.096L204.779 255.112L204.725 255.128L204.672 255.144L204.618 255.16L204.565 255.176L204.511 255.192L204.458 255.208L204.405 255.224L204.352 255.239L204.299 255.255L204.247 255.271L204.194 255.286L204.142 255.302L204.089 255.317L204.037 255.333L203.985 255.348L203.933 255.364L203.881 255.379L203.829 255.395L203.778 255.41L203.726 255.425L203.675 255.44L203.624 255.456L203.573 255.471L203.522 255.486L203.471 255.501L203.42 255.516L203.37 255.531L203.32 255.546L203.269 255.561L203.219 255.576L203.169 255.591L203.119 255.605L203.07 255.62L203.02 255.635L202.971 255.65L202.922 255.664L202.872 255.679L202.824 255.693L202.775 255.708L202.726 255.722L202.678 255.737L202.629 255.751L202.581 255.765L202.533 255.78L202.485 255.794L202.437 255.808L202.39 255.822L202.342 255.836L202.295 255.85L202.248 255.864L202.201 255.878L202.154 255.892L202.107 255.906L202.061 255.92L202.014 255.934L201.968 255.947L201.922 255.961L201.876 255.975L201.831 255.988L201.785 256.002L201.74 256.015L201.695 256.029L201.65 256.042L201.605 256.055L201.56 256.069L201.515 256.082L201.471 256.095L201.427 256.108L201.383 256.121L201.339 256.134L201.295 256.147L201.252 256.16L201.209 256.173L201.165 256.186L201.123 256.199L201.08 256.211L201.037 256.224L200.995 256.237L200.953 256.249L200.91 256.262L200.869 256.274L200.827 256.286L200.785 256.299L200.744 256.311L200.703 256.323L200.662 256.335L200.621 256.348L200.581 256.36L200.54 256.372L200.5 256.384L200.46 256.395L200.42 256.407L200.381 256.419L200.341 256.431L200.302 256.442L200.263 256.454L200.224 256.465L200.186 256.477L200.147 256.488L200.109 256.5L200.071 256.511L200.033 256.522L199.996 256.533L199.958 256.545L199.921 256.556L199.884 256.567L199.847 256.578L199.811 256.588L199.774 256.599L199.738 256.61L199.702 256.621L199.666 256.631L199.631 256.642L199.595 256.652L199.56 256.663L199.525 256.673L199.491 256.683L199.456 256.694L199.422 256.704L199.388 256.714L199.354 256.724L199.32 256.734L199.287 256.744L199.254 256.754L199.221 256.764L199.188 256.773L199.155 256.783L199.123 256.793L199.091 256.802L199.059 256.812L199.028 256.821L198.996 256.83L198.965 256.84L198.934 256.849L198.903 256.858L198.873 256.867L198.843 256.876L198.813 256.885L198.783 256.894L198.753 256.902L198.724 256.911L198.695 256.92L198.666 256.928L198.638 256.937L198.609 256.945L198.581 256.954L198.553 256.962L198.526 256.97L198.498 256.978L198.471 256.986L198.444 256.994L198.418 257.002L198.391 257.01L198.365 257.018L198.339 257.026L198.313 257.033L198.288 257.041L198.263 257.048L198.238 257.056L198.213 257.063L198.189 257.07L198.165 257.077L198.141 257.084L198.117 257.091L198.094 257.098L198.07 257.105L198.047 257.112L198.025 257.119L198.002 257.125L197.98 257.132L197.958 257.139L197.937 257.145L197.916 257.151L197.894 257.158L197.874 257.164L197.853 257.17L197.833 257.176L197.813 257.182L197.793 257.188L197.774 257.193L197.754 257.199L197.736 257.205L197.717 257.21L197.698 257.216L197.68 257.221L197.663 257.226L197.645 257.232L197.628 257.237L197.611 257.242L197.594 257.247L197.577 257.252L197.561 257.257L197.545 257.261L197.53 257.266L197.514 257.27L197.499 257.275L197.485 257.279L197.47 257.284L197.456 257.288L197.442 257.292L197.428 257.296L197.415 257.3L197.402 257.304L197.389 257.308L197.377 257.311L197.364 257.315L197.353 257.319L197.341 257.322L197.33 257.325L197.319 257.329L197.308 257.332L197.298 257.335L197.287 257.338L197.278 257.341L197.268 257.344L197.259 257.346L197.25 257.349L197.241 257.352L197.233 257.354L197.225 257.356L197.217 257.359L197.21 257.361L197.203 257.363L197.196 257.365L197.189 257.367L197.183 257.369L197.177 257.371L197.172 257.372L197.167 257.374L197.162 257.375L197.157 257.377L197.153 257.378L197.149 257.379L197.145 257.38L197.142 257.381L197.138 257.382L197.136 257.383L197.133 257.384L197.131 257.384L197.129 257.385L197.128 257.385L197.127 257.386L197.126 257.386L197.126 257.386C197.125 257.386 197.125 257.386 197.98 260.262L197.125 257.386L107.107 284.126L125.771 248.405L129.055 242.121L122.258 244.14L90.6243 253.537L89.4039 253.9L88.8167 255.029L89.2799 255.27C88.8166 255.029 88.8166 255.029 88.8165 255.03L88.8158 255.031L88.8132 255.036L88.8028 255.056L88.7617 255.135L88.6001 255.446L88.3047 256.015L87.9738 256.653C87.4273 257.706 86.6303 259.243 85.6278 261.18C83.6229 265.053 80.7963 270.524 77.509 276.914C70.9353 289.693 62.5161 306.156 55.1418 320.877L54.2236 322.71L55.5975 324.231C80.8285 352.172 104.678 368.27 143.617 379.689C163.354 385.477 179.946 388.419 196.624 388.458C213.301 388.497 229.911 385.633 249.683 379.979C352.072 350.703 410.357 242.474 379.912 140.477C349.501 38.594 242.043 -19.1561 140.212 11.3925C38.5916 41.8778 -16.5642 147.732 10.8301 250.032C16.9241 272.79 21.762 281.751 31.9493 300.62C32.3442 301.351 32.7471 302.098 33.1585 302.86L35.7814 307.723L38.4313 302.875C42.0332 296.285 45.8501 289.517 49.4899 283.064C52.497 277.732 55.3832 272.615 57.9275 267.989L58.6861 266.61L57.9821 265.202C57.7804 264.798 57.5855 264.409 57.3968 264.032C55.4586 260.162 54.1759 257.601 52.9357 254.416C51.5761 250.925 50.2512 246.636 48.2627 239.094C26.6808 157.248 70.4788 73.0791 151.334 48.7728C232.529 24.3647 318.261 70.3679 342.53 151.591C366.843 232.965 320.294 319.423 238.643 342.575C206.797 351.605 182.498 351.178 154.195 342.149C142.821 338.52 127.135 333.215 115.058 324.94L150.675 313.322L170.134 306.974L176.147 305.013L177.794 304.476L178.223 304.336L178.332 304.3L178.383 304.285L178.645 304.207L179.66 303.906L183.433 302.786L196.232 298.985C206.443 295.953 219.137 292.184 229.071 289.233C253.258 282.048 270.432 270.867 279.973 255.365C289.436 239.988 291.583 223.473 286.406 206.043C280.774 187.083 269.834 174.681 253.45 169.533C243.834 166.455 228.368 165.791 207.435 167.254L207.43 167.254L186.169 168.774L186.162 168.774L186.154 168.775C173.829 169.719 164.801 169.338 158.858 167.813C153.364 166.33 150.065 163.134 148.559 158.064C147.157 153.345 147.262 149.206 148.673 145.512C150.096 141.791 152.954 138.241 157.539 134.922C162.364 131.454 169.262 128.325 178.381 125.616Z" fill="#1D1D1F" stroke="#1D1D1F" stroke-width="6"/>
</svg>
